<?xml version="1.0" encoding="utf-8"?>
<!-- Generator: Adobe Illustrator 16.0.0, SVG Export Plug-In . SVG Version: 6.00 Build 0)  -->
<!DOCTYPE svg PUBLIC "-//W3C//DTD SVG 1.1//EN" "http://www.w3.org/Graphics/SVG/1.1/DTD/svg11.dtd">
<svg version="1.1" id="Layer_1" xmlns="http://www.w3.org/2000/svg" xmlns:xlink="http://www.w3.org/1999/xlink" x="0px" y="0px"
	 width="105.708px" height="137.266px" viewBox="0 0 105.708 137.266" enable-background="new 0 0 105.708 137.266"
	 xml:space="preserve">
<g>
	<path fill="#C8BB8E" d="M98.187,66.319v1.228l7.521-4.149V7.521H86.543l2.242,29.146C89.725,48.889,98.187,48.889,98.187,66.319z"
		/>
	<path fill="#C8BB8E" d="M69.889,37.607H36.228c1.228,10.732,8.527,11.684,9.246,26.325h9.464v27.477l5.642-3.111V66.319
		C60.58,49.35,68.598,48.897,69.889,37.607z"/>
	<polygon fill="#C8BB8E" points="71.066,22.564 72.223,7.521 33.893,7.521 35.05,22.564 	"/>
	<path fill="#C8BB8E" d="M17.332,36.667l2.242-29.146H0.408v56.41h7.585C8.732,48.873,16.437,48.301,17.332,36.667z"/>
	<path fill="#6A3C0F" d="M60.58,88.297V66.319c0-16.969,8.018-17.422,9.309-28.712c0.035-0.307,0.068-0.617,0.093-0.94l1.085-14.103
		l1.156-15.043L72.802,0h13.163l0.578,7.521l2.242,29.146c0.939,12.222,9.401,12.222,9.401,29.652v1.228L60.58,88.297z"/>
	<path fill="#6A3C0F" d="M7.993,63.932h37.481c-0.719-14.641-8.019-15.593-9.246-26.325c-0.035-0.307-0.068-0.617-0.093-0.94
		L35.05,22.564L33.893,7.521L33.314,0H20.152l-0.579,7.521l-2.242,29.146C16.437,48.301,8.732,48.873,7.993,63.932z"/>
	<path fill="#FFFFFF" d="M105.708,97.778v22.564h-7.521H60.58H45.537H7.93H0.408v-52.65h50.77v30.086l54.53-30.086V97.778z"/>
	<polygon fill="#C8BB8E" points="51.178,97.778 51.178,67.692 0.408,67.692 0.408,120.343 105.708,120.343 105.708,67.692 	"/>
	<path fill="#EE402F" d="M79.383,63.932c-9.401,0-13.162,6.895-13.162,20.685c0,0.193,0.008,0.371,0.01,0.562l24.488-13.51
		C88.757,66.52,85.128,63.932,79.383,63.932z"/>
</g>
</svg>
