<?xml version="1.0" encoding="utf-8"?>
<!-- Generator: Adobe Illustrator 16.0.0, SVG Export Plug-In . SVG Version: 6.00 Build 0)  -->
<!DOCTYPE svg PUBLIC "-//W3C//DTD SVG 1.1//EN" "http://www.w3.org/Graphics/SVG/1.1/DTD/svg11.dtd">
<svg version="1.1" id="Layer_1" xmlns="http://www.w3.org/2000/svg" xmlns:xlink="http://www.w3.org/1999/xlink" x="0px" y="0px"
	 width="120.342px" height="137.266px" viewBox="0 0 120.342 137.266" enable-background="new 0 0 120.342 137.266"
	 xml:space="preserve">
<g>
	<path fill="#D0D2D3" d="M30.085,109.061V97.507C42.842,95.682,52.65,84.716,52.65,71.453c0-11.281-7.521-18.803-7.521-33.846H7.521
		C7.521,52.65,0,60.172,0,71.453c0,13.263,9.808,24.229,22.564,26.054v11.554c0,2.82,0,3.761-4.701,5.641l-14.103,5.642h45.128
		l-14.101-5.641C30.085,112.821,30.085,111.881,30.085,109.061z"/>
	<g>
		<path fill="#DC651E" d="M7.521,71.453c0,10.369,8.436,18.804,18.803,18.804c10.368,0,18.804-8.435,18.804-18.804
			c0-3.74-1.179-7.115-2.702-11.281H10.224C8.7,64.338,7.521,67.713,7.521,71.453z"/>
		<path fill="#FFFFFF" d="M39.862,52.65H12.788c-0.753,2.555-1.595,4.87-2.369,6.983c-0.068,0.184-0.13,0.357-0.196,0.539h32.203
			c-0.066-0.182-0.128-0.355-0.196-0.539C41.457,57.52,40.615,55.205,39.862,52.65z"/>
	</g>
	<rect x="105.3" y="75.214" fill="#D0D2D3" width="15.042" height="26.325"/>
	<path fill="#D0D2D3" d="M93.077,94.018h8.462V82.735H60.171v11.282h11.282l-11.282,22.564l7.521,3.761l14.103-19.744
		C86.496,94.018,88.375,94.018,93.077,94.018z"/>
	<g>
		<polygon fill="#6A3C0F" points="94.018,0 60.171,0 68.229,56.411 85.959,56.411 		"/>
		<polygon fill="#CCCCCC" points="68.229,56.411 71.453,78.975 82.735,78.975 85.959,56.411 		"/>
	</g>
</g>
</svg>
