<?xml version="1.0" encoding="utf-8"?>
<!-- Generator: Adobe Illustrator 16.0.0, SVG Export Plug-In . SVG Version: 6.00 Build 0)  -->
<!DOCTYPE svg PUBLIC "-//W3C//DTD SVG 1.1//EN" "http://www.w3.org/Graphics/SVG/1.1/DTD/svg11.dtd">
<svg version="1.1" id="Layer_1" xmlns="http://www.w3.org/2000/svg" xmlns:xlink="http://www.w3.org/1999/xlink" x="0px" y="0px"
	 width="87.294px" height="89.171px" viewBox="0 0 87.294 89.171" enable-background="new 0 0 87.294 89.171" xml:space="preserve">
<path fill="#A00000" d="M0.044,68.375c1.004-1.082,1.851-2.396,3.04-3.203c4.854-3.287,9.84-6.381,15.918-6.812
	c3.021-0.214,6.055-0.272,9.082-0.419c1.59-0.076,3.179-0.217,4.77-0.281c1.109-0.043,2.223-0.008,3.366-0.229
	c-1.673-0.202-3.342-0.479-5.021-0.589c-1.713-0.111-3.438-0.131-5.152-0.063c-1.746,0.065-3.484,0.304-5.228,0.435
	c-1.696,0.127-3.395,0.215-5.555,0.35c0.466-1.01,0.636-1.811,1.11-2.335c3.744-4.144,6.246-8.996,8.258-14.139
	c1.66-4.244,2.653-8.638,3.026-13.185c0.301-3.669,1.948-6.496,5.385-8.132c2.499-1.189,5.065-2.102,7.862-2.142
	c0.291-0.923,0.572-1.821,0.89-2.829c-1.37-1.527-2.685-3.207-3.175-5.401c-0.061-0.269-0.838-0.521-1.289-0.534
	c-2.917-0.082-5.836-0.098-8.754-0.129C27.299,8.72,26.015,8.782,24.741,8.7c-1.885-0.121-2.621-0.945-2.613-2.832
	c0.004-0.874,0.012-1.762,0.157-2.62c0.332-1.953,1.317-2.794,3.35-2.835c2.956-0.059,5.915-0.029,8.872-0.072
	c5.109-0.075,10.218-0.206,15.328-0.258c3.787-0.037,7.576,0.021,11.363,0.02c1.629-0.001,3.271-0.201,4.881-0.039
	c2.129,0.217,3.818,2.602,3.504,4.736c-0.106,0.738-0.392,1.455-0.64,2.166C68.627,7.87,67.918,8.272,67,8.259
	c-2.635-0.039-5.271-0.15-7.905-0.155c-2.035-0.003-4.074,0.082-6.106,0.209c-0.304,0.019-0.793,0.45-0.836,0.743
	c-0.312,2.121-0.756,4.124-2.445,5.686c-0.676,0.626,0.25,2.885,1.168,3.161c1.256,0.38,2.517,0.749,3.764,1.157
	c4.484,1.471,7.275,4.496,8.021,9.174c0.914,5.739,2.131,11.393,4.08,16.874c1.557,4.374,2.879,8.827,5.686,12.675
	c2.379,3.258,5.57,5.327,9.107,6.975c2.305,1.074,4.141,2.693,5.76,4.578c0.354,0.414,0.338,1.146,0.492,1.729
	c-0.563,0.026-1.17,0.201-1.686,0.056c-3.438-0.979-6.801-2.343-10.296-2.979c-5.521-1.003-11.107-1.755-16.698-2.201
	c-6.359-0.508-12.754-0.663-19.136-0.781c-4.578-0.086-9.169,0.021-13.742,0.26c-4.968,0.258-9.94,0.621-14.877,1.215
	c-3.343,0.402-6.628,1.281-9.939,1.947c-0.337,0.067-0.673,0.146-1.009,0.217C0.284,68.656,0.164,68.515,0.044,68.375z
	 M42.761,12.196c1.921-0.116,3.526-0.213,5.517-0.332c0.357-0.801,0.881-1.971,1.402-3.139c-2.914,0-5.502,0-8.349,0
	C41.935,10.191,42.422,11.375,42.761,12.196z M47.176,17.63c-0.652-1.73-0.842-1.941-1.918-1.65
	c-0.383,0.104-0.655,0.611-1.124,1.079C45.389,17.294,46.268,17.46,47.176,17.63z"/>
<path fill="#A00000" d="M50.982,72.153c-0.343,0.897,0.019,1.313,0.724,1.687c1.68,0.882,2.971,2.095,3.387,4.078
	c0.395,1.879-0.108,3.373-1.614,4.539c-1.144,0.885-1.224,1.541-0.229,2.633c0.312,0.345,0.778,0.541,1.139,0.851
	c0.66,0.563,1.345,1.126,0.249,1.968c-0.281,0.217-0.296,0.846-0.578,0.979c-0.457,0.217-1.146,0.397-1.534,0.198
	c-0.537-0.272-1.251-0.353-1.43-1.349c-0.23-1.282-0.938-2.493-1.545-3.685c-0.129-0.252-0.703-0.29-1.082-0.399
	c-3.631-1.048-4.144-4.118-2.969-7.036c0.354-0.877,0.969-1.648,1.361-2.514c0.191-0.42,0.146-0.945,0.229-1.579
	c-2.514,0.716-2.96,2.503-3.167,4.416c-0.184,1.698-0.469,2.315-2.104,2.572c-2.068,0.323-4.193,0.467-6.287,0.417
	c-3.472-0.082-6.939-0.346-10.404-0.596c-5.199-0.377-10.457-0.199-15.563-1.474c-2.037-0.508-4.073-1.091-6.019-1.868
	c-1.572-0.631-2.768-1.855-3.379-3.492c-0.318-0.854-0.222-1.734,0.768-2.104c1.814-0.675,3.633-1.38,5.504-1.856
	c3.705-0.949,7.526-1.016,11.322-1.311c7.93-0.618,15.863-0.516,23.795-0.309c5.491,0.145,10.977,0.551,16.466,0.809
	c2.672,0.125,5.363,0.025,8.018,0.309c2.991,0.313,5.971,0.85,8.92,1.463c2.955,0.611,5.873,1.414,8.795,2.186
	c0.877,0.232,1.754,0.555,2.558,0.977c1.646,0.864,1.812,2.807,0.142,3.56c-1.966,0.883-4.115,1.501-6.248,1.834
	c-4.088,0.639-8.211,1.092-12.334,1.437c-3.021,0.252-6.063,0.244-9.099,0.27c-1.423,0.014-1.877-0.432-2.069-1.928
	C56.224,74.15,53.687,72.552,50.982,72.153z"/>
</svg>
