<?xml version="1.0" encoding="utf-8"?>
<!-- Generator: Adobe Illustrator 16.0.0, SVG Export Plug-In . SVG Version: 6.00 Build 0)  -->
<!DOCTYPE svg PUBLIC "-//W3C//DTD SVG 1.1//EN" "http://www.w3.org/Graphics/SVG/1.1/DTD/svg11.dtd">
<svg version="1.1" id="Layer_1" xmlns="http://www.w3.org/2000/svg" xmlns:xlink="http://www.w3.org/1999/xlink" x="0px" y="0px"
	 width="101.688px" height="112.912px" viewBox="0 0 101.688 112.912" enable-background="new 0 0 101.688 112.912"
	 xml:space="preserve">
<path fill="#AA0000" d="M50.845,0C22.682,0-0.147,22.832-0.147,50.992c0,12.376,4.411,23.722,11.745,32.552l-11.745,29.367
	L28.65,96.913c6.71,3.248,14.239,5.068,22.194,5.068c28.162,0,50.99-22.83,50.99-50.992C101.836,22.832,79.008,0,50.845,0z"/>
<g>
	<path fill="#FFFFFF" d="M31.347,60.872c0.447-0.48,0.824-1.064,1.354-1.426c2.158-1.461,4.374-2.835,7.077-3.028
		c1.343-0.095,2.692-0.122,4.038-0.187c0.707-0.033,1.414-0.099,2.122-0.125c0.493-0.019,0.989-0.002,1.497-0.103
		c-0.744-0.091-1.485-0.213-2.234-0.262c-0.759-0.049-1.524-0.057-2.291-0.028c-0.774,0.029-1.547,0.136-2.323,0.194
		c-0.753,0.056-1.509,0.096-2.469,0.155c0.207-0.447,0.283-0.805,0.492-1.039c1.666-1.842,2.778-3.999,3.674-6.288
		c0.738-1.886,1.179-3.84,1.345-5.861c0.134-1.633,0.864-2.888,2.393-3.617c1.114-0.528,2.254-0.935,3.496-0.952
		c0.13-0.411,0.256-0.81,0.398-1.258c-0.611-0.679-1.194-1.426-1.413-2.401c-0.028-0.12-0.373-0.231-0.574-0.238
		c-1.296-0.037-2.594-0.044-3.893-0.058c-0.568-0.005-1.138,0.021-1.705-0.015c-0.839-0.054-1.165-0.42-1.161-1.26
		c0.001-0.388,0.006-0.783,0.069-1.165c0.146-0.867,0.585-1.242,1.49-1.26c1.313-0.026,2.629-0.014,3.944-0.032
		c2.271-0.033,4.542-0.092,6.815-0.114c1.686-0.018,3.369,0.009,5.053,0.008c0.725,0,1.455-0.089,2.17-0.018
		c0.947,0.097,1.699,1.158,1.561,2.106c-0.049,0.329-0.176,0.647-0.287,0.963c-0.141,0.402-0.453,0.582-0.859,0.576
		c-1.174-0.019-2.346-0.068-3.518-0.069c-0.904-0.001-1.812,0.038-2.717,0.093c-0.135,0.008-0.35,0.201-0.371,0.332
		c-0.137,0.943-0.334,1.833-1.084,2.527c-0.303,0.278,0.109,1.284,0.52,1.406c0.559,0.169,1.119,0.333,1.672,0.515
		c1.998,0.655,3.238,2,3.568,4.079c0.406,2.552,0.947,5.066,1.812,7.503c0.691,1.945,1.279,3.926,2.527,5.635
		c1.059,1.448,2.477,2.368,4.051,3.1c1.023,0.479,1.84,1.197,2.561,2.037c0.158,0.186,0.15,0.508,0.219,0.768
		c-0.25,0.016-0.521,0.094-0.748,0.023c-1.527-0.434-3.021-1.041-4.576-1.32c-2.453-0.445-4.939-0.781-7.426-0.979
		c-2.826-0.227-5.67-0.295-8.508-0.348c-2.036-0.039-4.077,0.01-6.11,0.115c-2.208,0.113-4.418,0.273-6.615,0.539
		c-1.486,0.18-2.947,0.568-4.419,0.865c-0.148,0.029-0.298,0.064-0.448,0.098C31.455,60.997,31.402,60.933,31.347,60.872z
		 M50.342,35.893c0.855-0.052,1.567-0.094,2.454-0.147c0.158-0.356,0.393-0.877,0.623-1.396c-1.297,0-2.447,0-3.709,0
		C49.973,35,50.19,35.527,50.342,35.893z M52.303,38.309c-0.287-0.769-0.371-0.862-0.854-0.733c-0.168,0.046-0.291,0.271-0.499,0.48
		C51.51,38.16,51.901,38.231,52.303,38.309z"/>
	<path fill="#FFFFFF" d="M53.994,62.55c-0.148,0.398,0.012,0.584,0.322,0.75c0.748,0.393,1.322,0.93,1.508,1.812
		c0.176,0.838-0.049,1.5-0.717,2.02c-0.51,0.395-0.547,0.688-0.104,1.172c0.141,0.154,0.346,0.24,0.506,0.377
		c0.297,0.252,0.598,0.502,0.111,0.875c-0.125,0.098-0.133,0.375-0.258,0.438c-0.201,0.096-0.508,0.176-0.682,0.088
		c-0.238-0.123-0.559-0.158-0.635-0.6c-0.102-0.57-0.418-1.109-0.689-1.637c-0.057-0.113-0.311-0.133-0.479-0.18
		c-1.614-0.465-1.846-1.83-1.32-3.129c0.158-0.393,0.432-0.732,0.604-1.117c0.084-0.188,0.066-0.42,0.104-0.701
		c-1.118,0.318-1.318,1.113-1.409,1.963c-0.083,0.756-0.208,1.029-0.936,1.145c-0.918,0.143-1.863,0.207-2.796,0.188
		c-1.544-0.037-3.085-0.156-4.627-0.266c-2.311-0.17-4.647-0.09-6.918-0.654c-0.907-0.227-1.811-0.486-2.679-0.832
		c-0.698-0.281-1.229-0.826-1.501-1.555c-0.142-0.379-0.1-0.771,0.341-0.936c0.808-0.299,1.615-0.611,2.446-0.826
		c1.648-0.422,3.349-0.449,5.034-0.584c3.527-0.27,7.055-0.225,10.581-0.135c2.441,0.062,4.88,0.242,7.322,0.359
		c1.189,0.055,2.383,0.01,3.564,0.137c1.33,0.139,2.654,0.377,3.965,0.648c1.314,0.271,2.611,0.631,3.91,0.973
		c0.391,0.105,0.779,0.246,1.135,0.434c0.736,0.385,0.811,1.248,0.066,1.582c-0.873,0.393-1.83,0.666-2.777,0.814
		c-1.816,0.287-3.65,0.486-5.482,0.641c-1.348,0.111-2.697,0.107-4.049,0.119c-0.631,0.006-0.834-0.191-0.918-0.855
		C56.326,63.438,55.198,62.728,53.994,62.55z"/>
</g>
</svg>
