<?xml version="1.0" encoding="utf-8"?>
<!-- Generator: Adobe Illustrator 16.0.0, SVG Export Plug-In . SVG Version: 6.00 Build 0)  -->
<!DOCTYPE svg PUBLIC "-//W3C//DTD SVG 1.1//EN" "http://www.w3.org/Graphics/SVG/1.1/DTD/svg11.dtd">
<svg version="1.1" id="Layer_1" xmlns="http://www.w3.org/2000/svg" xmlns:xlink="http://www.w3.org/1999/xlink" x="0px" y="0px"
	 width="101.38px" height="137.266px" viewBox="0 0 101.38 137.266" enable-background="new 0 0 101.38 137.266"
	 xml:space="preserve">
<g>
	<path fill="#D0D2D3" d="M78.975,109.061V97.507c12.757-1.825,22.564-12.791,22.564-26.054c0-11.282-7.521-18.803-7.521-33.846
		H56.41c0,15.043-7.521,22.564-7.521,33.846c0,13.263,9.808,24.229,22.564,26.054v11.554c0,2.82,0,3.761-4.701,5.641l-14.103,5.642
		h45.129l-14.101-5.641C78.975,112.821,78.975,111.881,78.975,109.061z"/>
	<path fill="#6A3C0F" d="M9.401,83.676l2.821,36.667h13.162l2.82-36.667c0.94-12.223,9.402-12.223,9.402-29.652V0H0v54.023
		C0,71.453,8.462,71.453,9.401,83.676z"/>
	<path fill="#E7B82E" d="M5.641,35.727c0-13.789,3.761-20.684,13.163-20.684c9.401,0,13.162,6.895,13.162,20.684
		c0,13.79-3.761,20.684-13.162,20.684C9.401,56.411,5.641,49.516,5.641,35.727z"/>
	<path fill="#DC651E" d="M22.564,133.505c0,2.077-1.684,3.761-3.761,3.761s-3.761-1.684-3.761-3.761c0-1.88,1.88-5.641,3.761-9.401
		C20.684,127.864,22.564,131.625,22.564,133.505z"/>
	<g>
		<path fill="#DC651E" d="M75.214,90.257c6.944,0,13.018-3.787,16.273-9.401H58.94C62.197,86.47,68.27,90.257,75.214,90.257z"/>
	</g>
</g>
</svg>
